<?xml version="1.0" encoding="UTF-8"?><svg id="Calque_2" xmlns="http://www.w3.org/2000/svg" viewBox="0 0 1956.66 507.63"><defs><style>.cls-1{fill-rule:evenodd;}</style></defs><g id="Layer_1"><path class="cls-1" d="M914.07,60.3h68.12c2.94,0,6.72,1.49,11.14,4.46,4.42,2.91,6.98,9.02,7.62,18.27-.26,9.71-2.57,15.76-6.79,18.16-4.22,2.4-8.19,3.6-11.78,3.6h-68.3V60.3h0Zm-256.65-6.96l35.84,95.7h-74.7l38.86-95.7h0Zm-202.87,18.6h108.7l-62.43,169.61h97.13l17.08-43.51h80.48l17.03,43.51h102.44L724.38,0H168.76c-34.51,0-54.99,14.96-61.52,44.83-6.47,29.87,12.03,62.64,55.57,98.33,26.38,18.5,21.83,27.36-13.5,26.45H0v71.95H236.3c38.99-5.83,58.91-23.64,59.67-53.51,.71-29.92-19.14-60.7-59.67-92.35-22.59-16.72-17.86-24.67,14.27-23.76h115.62V241.56h88.34V71.95h0Zm361.63,169.61h97.89v-79.78c23.27,21.61,46.52,43.21,69.79,64.82,10.14,8.33,20.85,14.29,32.86,14.96h153.94v-71.95h-144.81l-20.23-23.08c20.99-4.45,37.13-10.62,48.4-18.39,11.2-7.83,19.14-17.53,23.62-29.13,4.49-11.59,4.22-28.09-.76-49.5-6.47-14.28-16.78-25.64-30.73-34.15-14.02-8.46-31.88-13.6-53.65-15.36h-176.31V241.56Z"/><path class="cls-1" d="M987.7,406.62l-28.1,101.01h-86.96l-86.79-238.31h92.34l36.63,102.99,31.84-102.99h79.95l37.13,102.99,24.82-102.99h86.02l-66.06,238.31h-86.97l-33.86-101.01h0Zm448.16,101.01v-238.31h173.93c21.48,1.74,39.1,6.81,52.94,15.16,13.76,8.39,23.93,19.6,30.31,33.69,4.92,21.13,5.18,37.41,.75,48.84-4.42,11.44-12.25,21.01-23.3,28.73-11.12,7.67-27.04,13.75-47.75,18.14l19.96,22.77h139.04c26.42-.83,27.9-9.55,4.31-26.09-42.94-35.2-61.19-67.54-54.81-97.01,6.44-29.47,26.64-44.23,60.69-44.23h164.72v70.98h-84c-31.7-.9-36.37,6.93-14.08,23.44,39.98,31.22,59.56,61.58,58.86,91.1-.75,29.47-20.4,47.04-58.86,52.79h-241.39l-84.75-78.71v78.71h-96.57Zm96.57-178.81v43.88h67.38c3.54,0,7.45-1.18,11.62-3.54,4.17-2.37,6.45-8.34,6.7-17.92-.64-9.12-3.16-15.16-7.52-18.02-4.36-2.93-8.09-4.4-10.99-4.4h-67.2Zm-253.2-6.87l-38.34,94.42h73.7l-35.36-94.42h0Zm-61.34-52.62c-33.99,81.35-62.72,155.63-93.15,238.31h95.82l16.85-42.93h79.39l16.8,42.93h101.06l-89.37-238.31h-127.4Z"/></g></svg>